<svg><defs><font id="iconfont" horiz-adv-x="1024"><font-face font-family="iconfont" font-weight="500" units-per-em="1024" ascent="896" descent="-128"/><glyph glyph-name="gwc" unicode="" d="M332.8 105.472q19.456 0 36.864-7.168t30.208-19.968 20.48-30.208 7.68-36.864-7.68-36.864-20.48-30.208-30.208-20.48-36.864-7.68q-20.48 0-37.888 7.68t-30.208 20.48-20.48 30.208-7.68 36.864 7.68 36.864 20.48 30.208 30.208 19.968 37.888 7.168zm425.984-2.048q19.456 0 37.376-7.168t30.72-19.968 20.48-30.208 7.68-36.864-7.68-36.864-20.48-30.208-30.72-20.48-37.376-7.68-36.864 7.68-30.208 20.48-20.48 30.208-7.68 36.864 7.68 36.864 20.48 30.208 30.208 19.968 36.864 7.168zm172.032 581.632q28.672 0 44.544-7.68t22.528-18.944 6.144-24.064-3.584-22.016-13.312-37.888-22.016-62.976-23.552-68.096-18.944-53.248q-13.312-40.96-33.28-56.832T839.68 317.44h-537.6l14.336-92.16h517.12q49.152 0 49.152-41.984 0-20.48-9.728-35.84t-38.4-14.336H297.984q-20.48 0-34.304 9.216T240.64 166.4t-14.848 32.256-8.704 32.768q-1.024 6.144-5.632 29.696T200.192 320t-14.848 78.848T168.96 486.4q-19.456 103.424-44.032 230.4h-76.8q-15.36 0-25.6 7.68T5.632 742.912t-9.216 23.04-2.56 22.528q0 20.48 13.824 33.792t37.376 12.288H148.48q20.48 0 32.768-6.144t19.456-15.36 10.24-18.944 5.12-16.896q2.048-8.192 4.096-23.04t4.096-30.208q3.072-18.432 6.144-38.912h700.416zm-37.888-91.136l-641.024 2.048 35.84-185.344 535.552-1.024z" horiz-adv-x="1028"/><glyph glyph-name="deliver" unicode="" d="M352 320H224c-17.664 0-32 14.304-32 32 0 17.664 14.336 32 32 32h96v96c0 17.664 14.336 32 32 32s32-14.336 32-32V352c0-17.696-14.336-32-32-32zm350.144-90.88c-61.952 0-113.664-43.296-127.296-101.12H451.04c-13.568 57.888-65.344 101.216-127.328 101.216-72.288 0-131.104-58.784-131.104-131.072 0-72.352 58.816-131.232 131.104-131.232 60.384 0 110.848 41.344 125.984 97.056h126.432c15.104-55.712 65.568-96.992 126.016-96.992 72.224 0 131.008 58.784 131.008 131.072S774.368 229.12 702.144 229.12zm-378.4-198.176c-36.992 0-67.104 30.144-67.104 67.232 0 36.96 30.08 67.072 67.104 67.072 36.992 0 67.072-30.08 67.072-67.072 0-37.088-30.08-67.232-67.072-67.232zm378.4.064c-36.96 0-67.072 30.08-67.072 67.072s30.08 67.072 67.072 67.072c36.928 0 67.008-30.08 67.008-67.072s-30.048-67.072-67.008-67.072zM864.032 800H399.744C355.776 800 320 764.224 320 720.256v-92.512L125.344 529.92a33.93 33.93 0 0 1-4-2.4c-36.096-25.376-56-64.96-56-111.52V94.016c0-17.696 14.336-32 32-32s32 14.304 32 32V416c0 25.024 9.088 44.512 27.04 57.888l209.984 105.504c1.44.704 2.368 1.984 3.648 2.88 1.888 1.312 3.776 2.496 5.312 4.16 1.408 1.536 2.336 3.328 3.424 5.056 1.088 1.728 2.24 3.328 2.976 5.28.8 2.176 1.024 4.416 1.344 6.688.256 1.568.928 2.944.928 4.544v112.256c0 8.672 7.072 15.744 15.744 15.744h464.288C881.664 736 896 721.408 896 703.488V96c0-17.696 14.304-32 32-32s32 14.304 32 32v607.488C960 756.704 916.928 800 864.032 800z" horiz-adv-x="1024"/><glyph glyph-name="evaluate" unicode="" d="M405.536-36.128c-8.8 0-17.568 3.584-23.904 10.688-83.232 93.216-217.856 94.112-220.64 94.112h-.192c-17.568 0-31.904 14.176-32.032 31.744-.128 17.664 14.016 32.064 31.648 32.256 6.656.352 165.664.192 268.96-115.488C441.152 4 440-16.224 426.816-28a31.83 31.83 0 0 0-21.28-8.128zm214.592.064a31.888 31.888 0 0 0-21.76 8.544c-12.96 12-13.76 32.256-1.728 45.216 106.976 115.52 262.752 115.392 268.896 115.136 17.696-.192 31.872-14.656 31.68-32.32-.192-17.568-14.464-31.68-32-31.68h-.256c-2.656 0-134.56-.864-221.376-94.624-6.272-6.848-14.88-10.272-23.456-10.272zm-56.416 162.752H462.304c-3.232 0-6.368.48-9.344 1.408-108.256 13.888-200.256 76.704-259.552 177.44-68.832 116.992-84.608 268.576-39.2 377.216a32.043 32.043 0 0 0 28.896 19.648l9.632.096c60.96 0 117.888-11.52 169.696-34.304 37.44 68.448 80.192 120.384 127.328 154.688 2.496 2.176 5.344 4 8.512 5.344 9.888 4.288 21.376 3.36 30.432-2.528a30.641 30.641 0 0 0 4.384-3.456c47.264-34.688 88.832-85.856 126.464-155.744 52.832 23.872 111.072 35.968 173.632 35.968l9.792-.096a32.043 32.043 0 0 0 28.896-19.648c45.408-108.672 29.664-260.256-39.232-377.248-59.296-100.672-151.264-163.52-259.488-177.44-3.04-.832-6.176-1.344-9.44-1.344zm-95.712 64h90.016c.672.128 1.376.224 2.08.32 115.712 12.864 182.08 87.072 217.376 147.008 54.048 91.872 70.432 211.936 42.528 300.32-58.24-1.888-111.616-16.16-158.816-42.528-7.712-4.288-16.832-5.184-25.184-2.624-8.384 2.624-15.328 8.608-19.2 16.512-32.448 66.368-67.232 115.2-105.824 148.48-38.624-33.216-74.176-82.4-105.92-146.592a31.969 31.969 0 0 0-19.04-16.32c-8.32-2.656-17.28-1.76-24.96 2.4-46.208 25.12-98.336 38.784-155.008 40.64-27.904-88.384-11.52-208.448 42.528-300.288 35.296-59.936 101.632-134.112 217.312-147.008a48.079 48.079 0 0 0 2.112-.32zM512.768-64c-17.664 0-32 14.304-32 32v190.688c0 17.696 14.336 32 32 32s32-14.304 32-32V-32c-.032-17.696-14.336-32-32-32z" horiz-adv-x="1024"/><glyph glyph-name="pay" unicode="" d="M799.488-4.448H159.936c-52.928 0-96 43.072-96 96v578.496c0 52.928 43.072 96 96 96h642.496c52.928 0 96-43.072 96-96V576c0-17.664-14.304-32-32-32s-32 14.336-32 32v94.048c0 17.632-14.336 32-32 32H159.936c-17.632 0-32-14.368-32-32V91.552c0-17.664 14.368-32 32-32h639.552c17.664 0 32 14.336 32 32v98.944c0 17.696 14.304 32 32 32s32-14.304 32-32V91.552c0-52.928-43.04-96-96-96zM630.144 381.888a.979.979 0 1 0 62.656 0 .979.979 0 1 0-62.656 0zM896 256H576c-35.296 0-64 28.704-64 64v128c0 35.296 28.704 64 64 64h320c35.296 0 64-28.704 64-64V320c0-35.296-28.704-64-64-64zM576 448V320h320.064L896 448H576z" horiz-adv-x="1024"/><glyph glyph-name="send" unicode="" d="M287.008 384h-62.016c-17.664 0-32 14.336-32 32s14.336 32 32 32h62.016c17.664 0 32-14.336 32-32s-14.336-32-32-32zm595.616 384H141.44C98.72 768 64 733.312 64 690.624V69.504C64 31.2 95.936.032 135.168.032h753.696c39.264 0 71.168 31.168 71.168 69.472v621.12C960 733.312 925.28 768 882.624 768zM896 690.624V559.52H672.512V704h210.112c7.36 0 13.376-6.016 13.376-13.376zM446.688 704h161.824V343.552l-70.784 28.224a31.788 31.788 0 0 1-24-.128l-67.04-27.52V704zM128 690.624c0 7.36 6.016 13.376 13.44 13.376h241.248V559.52H128v131.104zM888.832 64.032H135.168c-4.224 0-7.168 2.88-7.168 5.472V495.52h254.688V296.352a32.046 32.046 0 0 1 14.176-26.592 32.212 32.212 0 0 1 17.824-5.408c4.096 0 8.256.768 12.16 2.4l99.232 40.736 102.592-40.864c9.856-3.968 21.024-2.72 29.824 3.232a32.05 32.05 0 0 1 14.016 26.496V495.52H896V69.504c0-2.592-2.944-5.472-7.168-5.472z" horiz-adv-x="1024"/><glyph glyph-name="shop" unicode="" d="M864 278.4c-19.2 0-32-12.8-32-32V51.2c0-9.6-9.6-19.2-19.2-19.2H211.2c-9.6 0-19.2 9.6-19.2 19.2v195.2c0 19.2-12.8 32-32 32s-32-12.8-32-32V51.2C128 6.4 166.4-32 211.2-32h601.6C857.6-32 896 6.4 896 51.2v195.2c0 19.2-12.8 32-32 32zm92.8 300.8L851.2 784c-6.4 9.6-16 16-28.8 16h-640c-12.8 0-25.6-9.6-28.8-22.4l-83.2-208c-6.4-6.4-3.2-22.4-3.2-25.6v-80c0-80 67.2-147.2 147.2-147.2H256c48 0 86.4 16 112 44.8 25.6-28.8 70.4-44.8 124.8-44.8h41.6c54.4 0 99.2 16 124.8 44.8 25.6-25.6 64-41.6 112-41.6h41.6c80 0 147.2 67.2 147.2 147.2v83.2c0 3.2 0 22.4-3.2 28.8zM204.8 736h598.4l67.2-128h-720l54.4 128zm608-352h-41.6c-19.2 0-83.2 3.2-83.2 64 0 19.2-12.8 32-32 32s-32-12.8-32-32v-12.8c0-51.2-76.8-54.4-92.8-54.4h-41.6c-16 0-92.8 3.2-92.8 54.4v9.6c0 19.2-12.8 32-32 32s-32-12.8-32-32c0-48-41.6-64-83.2-64h-38.4c-44.8 0-83.2 38.4-83.2 83.2v80h768v-76.8c0-44.8-35.2-83.2-83.2-83.2z" horiz-adv-x="1024"/><glyph glyph-name="ticket" unicode="" d="M430.144-60.96c-22.72 0-44 8.96-59.872 25.248l-68.064 70.176c-12.288 12.672-12 32.832.608 45.184 14.272 13.92 22.24 32.544 22.464 52.48.224 19.904-7.328 38.688-21.248 52.928-27.904 28.576-77.056 29.152-105.504 1.312-6.08-5.952-15.328-9.056-22.784-9.12-8.512.128-16.64 3.584-22.56 9.728l-67.968 70.048c-15.52 15.808-24.032 36.928-23.808 59.296.256 22.4 9.216 43.328 25.248 59.008l443.456 434.528c32.192 31.328 87.168 30.624 118.4-1.312l68.128-70.208c12.288-12.672 12-32.864-.64-45.184-14.24-13.952-22.24-32.608-22.464-52.544-.224-19.936 7.328-38.72 21.216-52.992 27.872-28.48 77.056-29.12 105.6-1.248 6.08 5.952 14.688 8.384 22.784 9.12 8.512-.128 16.64-3.616 22.528-9.728l67.936-70.112c15.488-15.712 24-36.768 23.808-59.104-.192-22.4-9.12-43.392-25.12-59.072L488.672-37.12c-15.808-15.392-36.576-23.84-58.528-23.84zM367.808 58.784L416.16 8.896c7.264-7.392 20.224-7.648 27.808-.224l443.52 434.464a19.789 19.789 0 0 1 5.952 13.952c.032 5.216-1.952 10.112-5.6 13.824l-48.352 49.92c-21.312-12.832-45.824-19.68-71.296-19.68-37.664 0-72.864 14.816-99.2 41.76-25.888 26.464-39.872 61.408-39.456 98.432.32 26.176 7.776 51.136 21.504 72.672l-48.384 49.856c-7.2 7.328-20.256 7.552-27.84.192L131.392 329.568c-3.808-3.712-5.92-8.672-5.984-13.92-.032-5.248 1.952-10.176 5.6-13.952l48.32-49.824c21.312 12.832 45.792 19.68 71.232 19.68 37.664 0 72.928-14.848 99.232-41.824 25.856-26.432 39.904-61.376 39.456-98.368-.288-26.112-7.744-51.072-21.44-72.576zm-13.6 253.984a31.912 31.912 0 0 0-22.624 9.376c-12.512 12.512-12.512 32.736 0 45.248L510.24 546.08c12.512 12.512 32.768 12.512 45.28 0 12.48-12.48 12.48-32.736 0-45.248L376.864 322.144a32.04 32.04 0 0 0-22.656-9.376zm95.616-95.584a31.912 31.912 0 0 0-22.624 9.376c-12.512 12.512-12.512 32.736 0 45.248l178.656 178.688c12.512 12.512 32.736 12.512 45.248 0 12.512-12.48 12.512-32.736 0-45.248L472.448 226.56c-6.272-6.24-14.464-9.376-22.624-9.376z" horiz-adv-x="1024"/><glyph glyph-name="back" unicode="" d="M671.968-16c-12.288 0-24.576 4.672-33.952 14.048L286.048 350.016c-18.752 18.72-18.752 49.12 0 67.872l351.968 352c18.752 18.752 49.12 18.752 67.872 0 18.752-18.72 18.752-49.12 0-67.872L387.872 383.968 705.888 65.952c18.752-18.752 18.752-49.12 0-67.872-9.344-9.408-21.632-14.08-33.92-14.08z" horiz-adv-x="1024"/><glyph glyph-name="footprint" unicode="" d="M885.76 214.464c-13.76 11.168-33.92 8.896-44.96-4.832-11.104-13.76-8.928-33.92 4.832-44.96 22.4-18.08 52.48-71.776 52.48-101.984 0-54.016-43.904-97.952-97.92-97.952-31.776 0-61.728 15.488-80.096 41.504-2.208 3.136-61.536 88.672-96.192 125.696-61.088 65.216-163.52 61.568-163.904 61.632C330.24 220.32 241.344 325.6 257.6 433.312c8.064 53.728 40.96 100.736 92.64 132.448 53.44 32.736 120.192 45.184 188 34.976 67.712-10.208 127.84-41.728 169.28-88.768 40.064-45.504 57.664-100.128 49.536-153.92-3.072-20.576-9.856-40.352-20.224-58.816-8.672-15.392-3.2-34.912 12.256-43.552 15.328-8.608 34.912-3.2 43.552 12.256 14.176 25.248 23.488 52.416 27.712 80.672 10.976 72.704-12.064 145.76-64.8 205.696-51.392 58.336-125.184 97.344-207.776 109.76-82.592 12.384-164.672-3.104-230.976-43.744-68.096-41.728-111.584-104.768-122.496-177.472C172.96 301.536 284 164.512 447.072 130.88c2.176-.448 89.216.96 130.112-42.688 35.808-38.24 90.528-121.344 94.56-123.776 30.528-39.872 77.984-63.648 128.416-63.648 89.28 0 161.92 72.672 161.92 161.952 0 51.648-40.288 122.752-76.32 151.744zM64.416 575.136a2 2 0 1 0 128 0 2 2 0 1 0-128 0zm208.448 92.608c-10.976 0-21.984 3.712-30.944 11.328-20 17.024-22.784 46.816-5.984 67.008 3.968 4.736 98.688 115.68 277.184 79.968 25.984-5.184 42.848-30.464 37.664-56.48s-30.496-42.976-56.48-37.664C373.504 756.096 312 687.232 309.44 684.32c-9.536-10.944-23.04-16.576-36.576-16.576z" horiz-adv-x="1024"/><glyph glyph-name="right" unicode="" d="M761.056 363.872c.512.992 1.344 1.824 1.792 2.848 8.8 18.304 5.92 40.704-9.664 55.424L399.936 756.256c-19.264 18.208-49.632 17.344-67.872-1.888-18.208-19.264-17.376-49.632 1.888-67.872l316.96-299.84L335.2 82.368c-19.072-18.4-19.648-48.768-1.248-67.872 9.408-9.792 21.984-14.688 34.56-14.688 12 0 24 4.48 33.312 13.44l350.048 337.376c.672.672.928 1.6 1.6 2.304.512.48 1.056.832 1.568 1.344 2.72 2.848 4.16 6.336 6.016 9.6z" horiz-adv-x="1024"/><glyph glyph-name="refund" unicode="" d="M985.984 306.016c-10.304 14.304-30.272 17.568-44.672 7.296l-56.928-40.992c9.856 35.872 15.04 73.024 15.04 110.72 0 229.952-187.104 417.024-417.056 417.024-229.984 0-417.056-187.072-417.056-417.024S252.416-33.984 482.368-33.984c72.736 0 144 19.104 206.688 55.008 3.36.672 6.688 1.76 9.824 3.616a418.288 418.288 0 0 1 51.168 35.936c13.632 11.264 15.584 31.392 4.384 45.056-11.264 13.632-31.36 15.616-45.056 4.384-12.544-10.304-26.08-19.616-40.064-28.16-2.144-.704-4.352-1.024-6.368-2.24-54.368-32.448-116.8-49.6-180.544-49.6-194.656 0-353.056 158.368-353.056 353.024S287.68 736.064 482.368 736.064 835.392 577.696 835.392 383.04c0-44.16-8.192-87.552-24-128.192l-45.28 108.704c-6.816 16.352-25.568 23.968-41.856 17.248-16.32-6.784-24.032-25.536-17.216-41.856l72-172.864c.736-1.824 1.888-3.328 2.944-4.96.288-.448.32-.96.64-1.408.096-.16.288-.192.384-.352 2.752-3.648 6.24-6.496 10.208-8.704.704-.384 1.344-.768 2.08-1.088 3.328-1.536 6.848-2.72 10.624-3.04.64-.064 1.216.096 1.856.064.32 0 .576-.192.832-.192.672 0 1.312.256 1.984.32 2.4.096 4.736.448 7.008 1.056.512.16.96.352 1.44.512a31.131 31.131 0 0 1 7.296 3.648c.32.224.672.288.96.512l151.392 108.96c14.336 10.272 17.6 30.272 7.296 44.608zM606.752 521.504c12.672 12.288 13.024 32.544.736 45.248-12.288 12.672-32.512 13.056-45.248.736l-79.744-77.12-79.744 77.12c-12.704 12.288-32.992 11.968-45.248-.736-12.288-12.704-11.968-32.96.736-45.248L448 434.72V416h-64c-17.664 0-32-14.336-32-32s14.336-32 32-32h64v-32h-64c-17.664 0-32-14.304-32-32s14.336-32 32-32h64v-67.264c0-17.696 14.336-32 32-32s32 14.304 32 32V256h64c17.696 0 32 14.304 32 32s-14.304 32-32 32h-64v32h64c17.696 0 32 14.336 32 32s-14.304 32-32 32h-64v13.888l94.752 91.616z" horiz-adv-x="1024"/><glyph glyph-name="message" unicode="" d="M640 480H384c-17.664 0-32 14.336-32 32s14.336 32 32 32h256c17.696 0 32-14.336 32-32s-14.304-32-32-32zm-60.736-128H384c-17.664 0-32 14.336-32 32s14.336 32 32 32h195.264c17.696 0 32-14.336 32-32s-14.336-32-32-32zm382.976 96c0 211.744-200.96 384-448 384s-448-172.256-448-384c0-116.512 63.04-226.048 172.928-300.672 14.624-9.984 34.528-6.144 44.448 8.512 9.92 14.624 6.112 34.528-8.512 44.448C183.04 262.784 130.24 353.056 130.24 448c0 176.448 172.256 320 384 320s384-143.552 384-320-172.256-320-384-320c-1.984 0-3.68-.768-5.568-1.12-15.136 2.72-30.464-5.216-35.776-20.192-6.144-17.376-46.368-46.656-94.144-73.792 17.44 58.208 9.088 70.688 3.488 78.976a36.034 36.034 0 0 1-29.92 15.936c-17.664 0-32-14.304-32-32 0-5.824 1.536-11.264 4.256-15.968C321.344 61.632 307.36 19.008 291.52-20c-4.928-12.096-1.984-25.984 7.392-35.072 6.08-5.888 14.112-8.992 22.272-8.992 4.384 0 8.8.896 12.992 2.752 36.48 16.256 147.648 69.12 187.616 125.632C765.344 67.84 962.24 238.432 962.24 448z" horiz-adv-x="1024"/><glyph glyph-name="friendfamous" unicode="" d="M777.6 512c0 160-128 288-288 288s-288-128-288-288c0-108.8 57.6-201.6 147.2-249.6-121.6-48-214.4-153.6-240-288-3.2-16 6.4-35.2 25.6-38.4h6.4c16 0 28.8 9.6 32 25.6C201.6 112 332.8 220.8 486.4 224h6.4c156.8 0 284.8 128 284.8 288zm-512 0c0 124.8 99.2 224 224 224s224-99.2 224-224c0-121.6-99.2-220.8-220.8-224h-9.6c-121.6 3.2-217.6 102.4-217.6 224zm700.8-358.4c-3.2 12.8-12.8 19.2-25.6 22.4l-83.2 12.8-38.4 80c-6.4 12.8-16 19.2-28.8 19.2s-22.4-6.4-28.8-19.2l-38.4-80L640 176c-12.8-3.2-22.4-9.6-25.6-22.4s0-22.4 6.4-32l60.8-60.8-16-89.6c-3.2-12.8 3.2-25.6 12.8-32 9.6-6.4 22.4-6.4 35.2-3.2l73.6 41.6L860.8-64c6.4-3.2 9.6-3.2 16-3.2s12.8 3.2 19.2 6.4c9.6 6.4 16 19.2 12.8 32L896 60.8l60.8 60.8c9.6 9.6 12.8 22.4 9.6 32zM841.6 92.8c-6.4-6.4-9.6-16-9.6-28.8l6.4-38.4-32 16c-6.4 3.2-9.6 3.2-16 3.2s-9.6 0-16-3.2l-32-16 6.4 38.4c3.2 9.6 0 19.2-9.6 28.8l-28.8 28.8 38.4 6.4c9.6 0 19.2 9.6 25.6 19.2l16 32 16-32c3.2-9.6 12.8-16 25.6-19.2l38.4-6.4-28.8-28.8z" horiz-adv-x="1024"/><glyph glyph-name="we" unicode="" d="M508.8 192c-25.6 0-51.2 12.8-70.4 35.2l-96 118.4c-16 19.2-22.4 44.8-22.4 73.6 3.2 25.6 12.8 51.2 32 67.2s44.8 25.6 70.4 22.4c25.6-3.2 48-16 64-35.2l25.6-32 25.6 32c16 19.2 38.4 32 64 35.2s51.2-6.4 70.4-22.4c38.4-35.2 44.8-99.2 12.8-140.8l-44.8-48c-9.6-12.8-28.8-16-41.6-3.2-12.8 9.6-12.8 32-3.2 44.8l41.6 51.2c12.8 16 9.6 38.4-3.2 51.2-9.6 3.2-19.2 6.4-25.6 6.4-9.6 0-19.2-6.4-22.4-12.8L512 345.6l-70.4 89.6c-6.4 6.4-16 12.8-25.6 12.8s-19.2-3.2-25.6-9.6c-6.4-6.4-12.8-16-12.8-25.6 0-9.6 3.2-19.2 9.6-25.6l96-118.4c6.4-9.6 16-12.8 28.8-12.8s22.4 3.2 28.8 12.8c9.6 12.8 28.8 16 41.6 3.2 12.8-9.6 12.8-32 3.2-44.8-19.2-22.4-44.8-35.2-73.6-35.2h-3.2zM768 163.2c-6.4 0-12.8 3.2-19.2 6.4-12.8 9.6-16 32-6.4 44.8 38.4 48 57.6 105.6 57.6 166.4 0 64-25.6 128-70.4 176-12.8 12.8-9.6 32 3.2 44.8 12.8 12.8 32 9.6 44.8-3.2C832 537.6 864 457.6 864 377.6c0-73.6-25.6-147.2-73.6-204.8-3.2-6.4-12.8-9.6-22.4-9.6zm-492.8 0c-9.6 0-16 3.2-22.4 9.6-57.6 57.6-92.8 134.4-92.8 214.4s32 156.8 92.8 214.4c12.8 12.8 32 12.8 44.8 0 12.8-12.8 12.8-32 0-44.8-44.8-48-73.6-108.8-73.6-169.6s25.6-121.6 73.6-169.6c12.8-12.8 12.8-32 0-44.8-6.4-6.4-12.8-9.6-22.4-9.6zM224 0c-6.4 0-16 3.2-22.4 6.4l-48 48C76.8 147.2 32 262.4 32 384s44.8 240 124.8 329.6c16 16 28.8 32 44.8 44.8 16 9.6 35.2 9.6 48-3.2 12.8-12.8 9.6-32-3.2-44.8-16-12.8-28.8-25.6-41.6-41.6C134.4 592 96 489.6 96 384c0-105.6 38.4-204.8 105.6-284.8 12.8-16 25.6-28.8 41.6-41.6 12.8-12.8 16-32 3.2-44.8C243.2 6.4 233.6 0 224 0zm576 0c-9.6 0-16 3.2-22.4 9.6-12.8 12.8-12.8 32 0 44.8 28.8 28.8 54.4 54.4 64 67.2C899.2 198.4 928 288 928 384c0 102.4-35.2 201.6-99.2 278.4-16 19.2-32 35.2-51.2 51.2-12.8 12.8-16 32-3.2 44.8 12.8 12.8 32 16 44.8 3.2 22.4-19.2 41.6-38.4 57.6-57.6C950.4 614.4 992 502.4 992 384c0-108.8-35.2-211.2-99.2-297.6-16-22.4-51.2-57.6-70.4-76.8C816 3.2 809.6 0 800 0z" horiz-adv-x="1024"/><glyph glyph-name="people" unicode="" d="M800 512c0 160-128 288-288 288S224 672 224 512c0-108.8 57.6-201.6 147.2-249.6-121.6-48-214.4-153.6-240-288-3.2-16 6.4-35.2 25.6-38.4h6.4c16 0 28.8 9.6 32 25.6C224 112 355.2 220.8 508.8 224h6.4C672 224 800 352 800 512zm-512 0c0 124.8 99.2 224 224 224s224-99.2 224-224c0-121.6-99.2-220.8-220.8-224h-9.6C384 291.2 288 390.4 288 512zm435.2-291.2c-16 9.6-35.2 6.4-44.8-9.6-9.6-16-6.4-35.2 9.6-44.8 73.6-51.2 124.8-121.6 140.8-204.8 3.2-16 16-25.6 32-25.6h6.4c16 3.2 28.8 19.2 25.6 38.4-19.2 99.2-80 185.6-169.6 246.4z" horiz-adv-x="1024"/><glyph glyph-name="gouwuche" unicode="" d="M352.457 63.968c-35.435 0-63.99-28.555-63.99-63.99 0-35.434 28.555-63.989 63.99-63.989s63.99 28.555 63.99 63.99c0 35.434-28.555 63.989-63.99 63.989zm448.097 0c-35.435 0-63.99-28.555-63.99-63.99 0-35.434 28.555-63.989 63.99-63.989s63.989 28.555 63.989 63.99c0 35.434-28.726 63.989-63.99 63.989zm63.473 31.994H344.2c-46.1 0-86.695 36.467-92.2 83.083L197.645 561.09l-30.79 178.55c-1.892 15.653-16.17 28.383-29.93 28.383h-40.94c-17.718 0-31.995 14.277-31.995 31.994s14.277 31.995 31.995 31.995h40.767c46.616 0 87.727-36.467 93.404-83.083l30.79-177.863 54.529-383.763c1.72-14.793 15.31-27.35 28.726-27.35h519.827c17.717 0 31.995-14.278 31.995-31.995s-14.278-31.995-31.995-31.995zM384.28 223.941c-16.686 0-30.619 12.729-31.823 29.586-1.376 17.546 11.869 33.027 29.586 34.231l434.164 31.995c15.997.172 29.414 12.557 31.135 26.834l50.4 288.296c1.204 10.664-1.72 22.533-8.085 29.758-4.128 4.644-9.289 7.053-15.31 7.053h-554.4c-17.718 0-31.995 14.277-31.995 31.994s14.449 32.339 31.994 32.339h554.058c24.426 0 46.96-10.149 63.3-28.554 18.75-21.158 27.18-50.745 23.567-81.707l-50.4-288.468c-5.505-44.896-45.928-81.363-92.028-81.363l-431.755-31.822c-.86 0-1.72-.172-2.408-.172z" horiz-adv-x="1024"/><glyph glyph-name="zuji" unicode="" d="M885.7 214.48c-13.76 11.181-33.886 8.945-44.895-4.816-11.18-13.761-8.945-33.887 4.816-44.896 22.362-18.061 52.465-71.73 52.465-102.004 0-54.013-43.864-97.876-97.876-97.876-31.823 0-61.753 15.48-80.159 41.455-2.236 3.096-61.581 88.587-96.156 125.742-61.065 65.194-163.585 61.581-163.93 61.581-129.698 26.663-218.63 131.935-202.288 239.616 8.085 53.668 40.94 100.8 92.716 132.45 53.496 32.684 120.238 45.24 188.011 34.92 67.774-10.15 127.807-41.8 169.262-88.76 40.08-45.583 57.625-100.112 49.54-153.952-3.096-20.642-9.805-40.423-20.298-58.829-8.6-15.31-3.268-34.919 12.213-43.52 15.31-8.6 34.92-3.268 43.52 12.213 14.105 25.287 23.566 52.465 27.694 80.675 11.01 72.762-12.04 145.696-64.849 205.729-51.432 58.313-125.226 97.36-207.793 109.745-82.567 12.385-164.618-3.096-231.015-43.692-68.118-41.799-111.637-104.756-122.474-177.518-21.33-141.224 89.62-278.319 252.689-312.034 2.236-.516 89.275 1.032 130.042-42.66 35.78-38.186 90.48-121.27 94.608-123.85 30.447-39.907 77.922-63.645 128.495-63.645 89.275 0 161.865 72.59 161.865 161.866.172 51.948-40.08 123.162-76.202 152.06zM64.334 575.194c0-35.263 28.727-63.99 63.99-63.99s63.989 28.727 63.989 63.99-28.727 63.989-63.99 63.989-63.989-28.726-63.989-63.99zm208.481 92.543a47.834 47.834 0 0 0-30.962 11.353c-19.954 17.03-22.706 46.788-6.02 67.086 3.956 4.816 98.735 115.593 277.114 79.986 25.974-5.16 42.832-30.446 37.671-56.42s-30.446-43.004-56.42-37.671c-120.754 24.254-182.335-44.724-184.916-47.648-9.46-11.01-22.878-16.686-36.467-16.686z" horiz-adv-x="1024"/><glyph glyph-name="sc" unicode="" d="M963.533 560.84L679.59 601.773l-127.9 258.363c-7.676 15.35-25.582 25.58-43.488 25.58s-33.256-10.23-43.488-28.137L341.927 596.653 57.984 555.727c-17.907-2.556-33.256-15.35-38.37-33.255-5.118-17.906 0-35.812 12.788-48.602l207.204-202.087-38.372-286.5c-2.557-17.905 5.117-35.813 17.904-46.049 7.676-5.112 17.906-10.23 28.139-10.23 7.674 0 15.349 2.561 23.023 5.118L513.314 69.698 753.77-63.322c7.674-2.556 15.35-5.113 23.024-5.113 25.581 0 46.045 20.462 46.045 48.601v10.231L784.47 274.341l204.644 204.643c12.787 12.793 17.906 30.7 12.787 48.605-7.67 17.908-20.462 30.695-38.369 33.252zM303.557 276.898c2.557 15.35-2.56 33.256-15.35 43.488L91.237 499.452l276.27 38.37c15.35 2.557 30.694 12.788 38.369 28.137l102.325 237.9 112.552-232.78c7.674-15.35 20.467-25.582 38.373-28.144l268.594-43.483-191.855-184.18c-12.787-10.233-17.906-28.137-12.787-43.488L753.77 5.747 536.34 133.649c-12.79 7.674-30.695 5.117-46.046-2.557L267.743 8.305l35.814 268.592zm207.202 562.14L374.755 576.746 59.474 513.16l225.642-227.85-45.482-309.982 283.488 132.471L772.167-11.426l-29.143 288.787 206.654 219.902-296.734 52.988z" horiz-adv-x="1024"/><glyph glyph-name="wendang" unicode="" d="M1358.328 174.772c-2.09 6.27-7.446 10.712-13.847 11.626l-147.224 22.73-65.578 140.824a17.43 17.43 0 0 1-15.807 10.058c-6.793 0-12.802-3.788-15.807-9.928l-66.362-140.43-147.354-22.208c-6.401-1.046-11.888-5.487-13.978-11.627-2.09-6.14-.653-13.063 4.05-17.635L983.41 48.188l-25.605-155.062c-1.045-6.662 1.699-13.194 7.055-17.113 5.486-3.788 12.671-4.31 18.419-1.045l131.548 72.371 131.287-72.894c2.612-1.437 5.486-2.22 8.49-2.22h.393c9.667 0 17.374 7.838 17.374 17.505 0 2.22-.392 4.31-1.045 6.14l-24.429 151.796 107.25 109.47c4.703 4.573 6.271 11.366 4.18 17.636zM934.375 29.847l-146.477 150.49c-6.688 6.688-8.695 16.052-5.35 24.078 2.675 8.695 10.032 14.715 19.396 16.053l124.405 18.727H448.794v54.845h549.121v-44.143l5.35.669 90.964 192.627c2.675 5.35 7.357 10.032 12.708 12.039V843.83c0 28.092-16.053 52.17-38.124 52.17H379.234c-21.403 0-38.124-24.078-38.124-52.17V70.647c0-28.092 16.053-52.17 38.124-52.17h553.803l1.338 11.37zm-485.58 757.131h329.74v-54.176h-329.74v54.176zm0-164.535h549.12v-54.845h-549.12v54.845zm0-163.867h549.12v-55.514h-549.12v55.514z" horiz-adv-x="1707"/><glyph glyph-name="xjt" unicode="" d="M539.903 99.362c4.251 2.454 8.823 4.251 12.582 8.011.659.82 1.142 1.47 1.8 2.126.82.979 2.124 1.306 2.938 2.126L998.31 569.212c11.763 12.092 17.649 27.784 17.649 43.473 0 16.344-6.536 32.85-19.282 45.107-25.003 24.024-64.722 23.37-88.74-1.634l-397.78-412.81-392.052 414.444c-23.86 25.166-63.573 26.314-88.74 2.453-25.166-23.862-26.314-63.573-2.453-88.74l436.836-461.838c19.116-20.265 48.535-24.025 72.396-12.584 1.305.484 2.454 1.633 3.759 2.283zm0 0z" horiz-adv-x="1024"/><glyph glyph-name="cd" unicode="" d="M70.182 693.373h883.91c24.403 0 44.186 19.784 44.186 44.187s-19.783 44.187-44.187 44.187H70.182c-24.404 0-44.187-19.783-44.187-44.187s19.783-44.187 44.187-44.187zM70.17 340.96h881.816c24.403 0 44.187 19.783 44.187 44.187s-19.784 44.187-44.187 44.187H70.17c-24.404 0-44.187-19.783-44.187-44.187S45.766 340.96 70.17 340.96zM954.09 74.965H70.182c-24.404 0-44.187-19.783-44.187-44.187s19.783-44.187 44.187-44.187h883.91c24.403 0 44.186 19.784 44.186 44.187s-19.783 44.187-44.187 44.187z" horiz-adv-x="1024"/><glyph glyph-name="we_light" unicode="" d="M305.067 612.267c-8.533 8.533-21.333 6.4-29.867-2.133-53.333-59.733-83.2-136.533-83.2-217.6 0-78.933 29.867-155.733 81.067-215.467 4.267-4.267 10.667-6.4 14.933-6.4 4.267 0 10.667 2.133 14.933 6.4 8.533 8.533 10.667 21.333 2.133 29.867-44.8 49.067-70.4 117.333-70.4 185.6 0 70.4 25.6 136.533 72.533 189.867 8.533 8.533 6.4 21.333-2.133 29.867zm443.733-2.134c-8.533 8.533-21.333 8.533-29.867 2.133-8.533-8.533-8.533-21.333-2.133-29.867 46.933-51.2 72.533-119.467 72.533-189.867 0-70.4-25.6-136.533-70.4-187.733-8.533-8.533-6.4-21.333 2.133-29.867 4.267-4.267 8.533-6.4 14.933-6.4s12.8 2.133 14.933 6.4c53.333 59.733 81.067 136.533 81.067 215.467 0 83.2-29.867 160-83.2 219.733zm53.333-567.466c-6.4 0-10.667 2.133-14.933 6.4-8.533 8.533-8.533 21.333 0 29.867 17.067 14.933 32 34.133 44.8 51.2 55.467 74.667 85.333 162.133 85.333 253.867 0 100.267-34.133 196.267-98.133 273.067-14.933 19.2-32 34.133-49.067 51.2-8.533 8.533-10.667 21.333-2.133 29.867 8.533 8.533 21.333 10.667 29.867 2.133 19.2-17.067 38.4-36.267 55.467-55.467 68.267-83.2 106.667-189.867 106.667-300.8 0-102.4-32-198.4-91.733-279.467-14.933-21.333-32-40.533-51.2-57.6-4.267-2.133-8.533-4.267-14.933-4.267zm-565.333 0c-4.267 0-10.667 2.133-12.8 4.267-14.933 12.8-29.867 27.733-44.8 44.8-74.667 83.2-115.2 192-115.2 302.933 0 113.067 40.533 219.733 115.2 305.067 12.8 14.933 27.733 29.867 42.667 42.667 8.533 8.533 23.467 6.4 29.867-2.133 8.533-8.533 6.4-23.467-2.133-29.867-12.8-12.8-27.733-25.6-38.4-38.4-66.133-76.8-104.533-174.933-104.533-277.333 0-100.267 36.267-198.4 104.533-273.067 12.8-14.933 25.6-27.733 40.533-40.533 8.533-8.533 10.667-21.333 2.133-29.867-4.267-4.267-10.667-8.533-17.067-8.533zm270.933 192c-25.6 0-49.067 10.667-66.133 32L341.333 386.134c-32 38.4-27.733 93.867 10.667 125.867 19.2 14.933 40.533 23.467 66.133 21.333 23.467-2.133 44.8-12.8 59.733-32l34.133-40.533 34.133 40.533c14.933 19.2 36.267 29.867 59.733 32s46.933-4.267 66.133-21.333c19.2-14.933 29.867-36.267 32-59.733 2.133-23.467-4.267-46.933-21.333-66.133l-42.667-51.2c-8.533-8.533-21.333-10.667-29.867-2.133-8.533 8.533-10.667 21.333-2.133 29.867l42.667 51.2c8.533 8.533 12.8 21.333 10.667 34.133-2.133 12.8-6.4 23.467-17.067 32-8.533 8.533-21.333 12.8-34.133 10.667-12.8-2.133-23.467-6.4-32-17.067l-66.133-78.933-66.133 78.933c-8.533 8.533-19.2 14.933-32 17.067-12.8 2.133-23.467-2.133-34.133-10.667-19.2-17.067-21.333-46.933-6.4-66.133L473.6 294.402c8.533-10.667 23.467-17.067 38.4-17.067 17.067 0 29.867 6.4 38.4 17.067 8.533 8.533 21.333 10.667 29.867 2.133 8.533-8.533 10.667-21.333 2.133-29.867-17.067-21.333-44.8-32-72.533-32h-2.133z" horiz-adv-x="1024"/><glyph glyph-name="mayihuabei" unicode="" d="M541.85 639.764c48-11.97 94.105 10.04 102.978 49.199 8.909 39.111-22.81 80.522-70.8 92.538-48.045 11.981-94.12-10.06-102.998-49.208-8.889-39.163 22.804-80.558 70.82-92.529zm220.026 210.863c-115.717 69.237-179.287 50.268-178.283 1.93.742-36.112 33.613-45.056 62.776-59.08 99.093-47.616 152.566-120.79 125.374-180.193-24.96-54.487-117.73-73.718-213.801-38.974-98.345 35.564-227.277 120.27-244.618 24.73-14.654-80.717 107.432-84.403 236.938-215.388 63.109-63.821 77.373-195.42 9.651-267.643-71.66-76.426-247.89-53.36-330 39.531-161.33 182.544-54.6 349.978-31.723 391.087 17.843 31.493 26.972 52.413 26.665 77.706-.502 40.852-28.964 67.702-68.47 70.062-47.124 2.81-82.724-26.593-102.384-70.8C-151.235 162.166 291.456-246.374 686.28-95.2c394.977 151.224 467.988 711.03 75.596 945.828z" horiz-adv-x="1024"/><glyph glyph-name="huiyuanzhongxin" unicode="" d="M426.667 517.689l48.356-273.067 182.044 261.689c2.844 5.689 2.844 11.378 2.844 19.911 0 11.378-2.844 19.911-11.378 25.6-5.689 5.689-11.378 8.533-25.6 8.533h-22.756c-5.689 0-11.378 5.689-11.378 11.378s5.689 11.378 11.378 11.378h153.6c5.689 0 11.378-5.689 11.378-11.378s-5.689-11.378-11.378-11.378h-2.844c-11.378 0-22.756-5.689-31.289-14.222-11.378-8.533-14.222-19.911-28.444-42.667L455.111 156.444h-28.444l-73.956 369.778c-5.689 11.378-11.378 19.911-19.911 25.6s-17.067 8.533-31.289 8.533h-5.689c-5.689 0-11.378 5.689-11.378 11.378s5.689 11.378 11.378 11.378h179.2c5.689 0 11.378-5.689 11.378-11.378s-5.689-11.378-11.378-11.378h-19.911c-14.222 0-25.6-2.844-28.444-5.689-5.689-2.844-8.533-5.689-8.533-11.378 0-2.844 0-8.533 8.533-25.6zM512 856.178C250.311 856.178 39.822 645.689 39.822 384S250.311-88.178 512-88.178 984.178 122.311 984.178 384 773.689 856.178 512 856.178zm0-904.534C273.067-48.356 79.644 145.066 79.644 384S273.066 816.356 512 816.356 944.356 622.934 944.356 384 750.934-48.356 512-48.356z" horiz-adv-x="1024"/><glyph glyph-name="shoucangbaobei" unicode="" d="M866.661 546.78c-1.488 34.232-29.674 61.22-63.938 61.22H704v96c0 106.039-85.962 192-192 192-106.04 0-192-85.961-192-192v-96h-98.723c-34.265 0-62.451-26.987-63.938-61.22L130.904-61.221C129.321-97.623 158.406-128 194.842-128h634.313c36.438 0 65.523 30.377 63.94 66.779L866.661 546.78zM384 704c0 70.579 57.42 128 128 128 70.579 0 128-57.421 128-128v-96H384v96zM228.264-32l23.652 544H320v-92.209c0-17.673 14.327-32 32-32s32 14.327 32 32V512h256v-92.209c0-17.673 14.327-32 32-32s32 14.327 32 32V512h68.083l23.652-544H228.264zM432 272v32c0 26.51-21.49 48-48 48s-48-21.49-48-48v-32c0-26.51 21.49-48 48-48s48 21.49 48 48zm208 80c-26.51 0-48-21.49-48-48v-32c0-26.51 21.49-48 48-48s48 21.49 48 48v32c0 26.51-21.491 48-48 48zm-57.21-217.524c-20.288-13.519-44.635-21.403-70.79-21.403-26.154 0-50.503 7.885-70.791 21.403-12.566 8.373-29.31 6.496-39.987-4.182-14.544-14.544-11.647-38.554 5.546-49.841C436.99 60.612 473.147 49.072 512 49.072s75.011 11.54 105.232 31.38c17.193 11.288 20.09 35.298 5.546 49.842-10.678 10.678-27.421 12.555-39.988 4.182z" horiz-adv-x="1024"/><glyph glyph-name="alixiaomi" unicode="" d="M333.685 17.6c-4.55-6.066-7.583-14.408-9.1-22.75-1.516-8.341-2.275-18.2-2.275-28.816C166.093 35.042 72.06 188.984 72.06 367.952c0 242.668 166.833 439.835 439.834 439.835S951.73 610.62 951.73 367.952c0-178.967-94.792-332.91-250.25-401.918 0 10.616 0 19.716-2.276 28.816-1.516 9.1-4.55 16.684-9.1 22.75 119.818 62.943 200.96 184.276 200.96 312.435 0 42.467-5.309 75.834-15.925 101.617-25.026 89.484-113.75 156.218-218.401 156.218-53.084 0-103.892-25.026-144.843-56.117-40.191 31.091-91.758 56.117-144.842 56.117-104.65 0-193.376-66.734-218.4-155.46-11.376-26.541-15.926-59.908-15.926-102.375 0-128.159 81.142-250.25 200.96-312.434zm269.21 327.602c0 18.958 15.166 34.125 34.125 34.125s34.125-15.167 34.125-34.125v-34.125c0-16.684-13.65-30.334-30.333-30.334h-7.584c-16.683 0-30.333 13.65-30.333 30.334v34.125zm-242.668 0c0 18.958 15.167 34.125 34.125 34.125s34.125-15.167 34.125-34.125v-34.125c0-16.684-13.65-30.334-30.333-30.334h-7.583c-16.684 0-30.334 13.65-30.334 30.334v34.125zm91-113.75c0 25.025 20.476 45.5 45.5 45.5h37.917c25.026 0 45.5-20.475 45.5-45.5v-5.309c0-28.058-22.75-50.808-50.808-50.808h-27.3c-28.058 0-50.809 22.75-50.809 50.808v5.308zM254.06 251.167c-1.517 8.342 4.55 15.925 12.892 17.442 8.341 1.517 15.925-4.55 17.441-12.892 0-.758.759-3.791 1.517-6.825 1.517-6.066 3.033-12.892 6.067-19.717 7.583-21.233 17.442-41.708 31.85-61.425 40.192-55.358 100.859-88.725 188.826-88.725s148.634 33.367 188.825 88.725c13.65 19.717 24.267 40.192 31.85 61.425 2.276 7.584 4.55 14.409 6.067 19.717.759 3.792 1.517 6.067 1.517 6.825 1.517 8.342 9.1 13.65 17.442 12.892 8.341-1.517 13.65-9.1 12.891-17.442-.758-6.825-3.791-18.2-8.341-31.85-8.342-23.508-19.717-47.017-35.642-69.009C681.762 87.367 611.995 49.45 514.169 49.45S346.577 87.367 301.077 150.308c-15.925 21.992-27.3 45.5-35.642 69.01-7.583 14.407-9.858 25.783-11.375 31.85zm447.418 551.31c-21.233 0-59.908 3.034-63.7 6.826-6.825 7.583 6.825 31.092 35.642 56.875 28.817 25.025 84.175 42.467 110.717 16.683 22.75-21.233 15.167-59.908-19.717-73.558-14.408-5.309-41.708-6.825-62.942-6.825zm-379.168 0c-21.233 0-48.533.76-63.7 6.826-34.883 13.65-42.467 52.325-19.717 74.317 27.3 25.025 81.9 8.341 110.717-16.684 28.817-25.025 42.467-49.292 35.642-56.875-3.033-4.55-41.708-7.583-62.942-7.583zm207.026-834.17s88.725 43.226 128.917 43.226 15.167-136.5-25.025-136.5-107.684 68.25-107.684 68.25c-9.858 8.341-7.583 19.716 3.792 25.025zm-34.883 0c11.375-5.308 13.65-16.683 3.791-25.024 0 0-67.492-68.25-107.683-68.25s-65.217 136.5-25.026 136.5 128.918-43.225 128.918-43.225z" horiz-adv-x="1024"/><glyph glyph-name="xj" unicode="" d="M957.71 706.599H736.343l-51.781 65.633c-9.839 12.428-24.467 19.548-40.26 19.548H379.828c-15.794 0-30.551-7.12-40.26-19.548l-51.782-65.633H66.42c-28.35 0-51.393-23.043-51.393-51.393V27.355c0-28.35 23.043-51.393 51.393-51.393h891.548c28.35 0 51.394 23.042 51.394 51.393v627.85c-.26 28.48-23.302 51.394-51.652 51.394zM943.6 41.724H80.4v599.371h214.118c15.793 0 30.55 7.12 40.26 19.548l51.781 65.633h250.752l51.782-65.633c9.838-12.428 24.467-19.548 40.26-19.548H943.47V41.725zM512 562.905c-123.887 0-224.732-100.844-224.732-224.732S388.113 113.312 512 113.312s224.732 100.845 224.732 224.732S635.887 562.905 512 562.905zm0-383.96c-87.77 0-159.228 71.459-159.228 159.228S424.23 497.402 512 497.402s159.228-71.459 159.228-159.229c0-87.899-71.458-159.228-159.228-159.228zm327.648 318.457c18.123 0 32.751 14.628 32.751 32.751s-14.628 32.752-32.751 32.752-32.752-14.628-32.752-32.752c-.13-18.123 14.628-32.751 32.752-32.751z" horiz-adv-x="1024"/><glyph glyph-name="fdj" unicode="" d="M977.692-6.542l-208.44 208.44c58.368 71.226 93.411 162.134 93.411 261.234 0 227.67-185.23 413.014-413.013 413.014-227.67 0-413.014-185.23-413.014-413.014S221.866 50.12 449.65 50.12c98.986 0 190.009 35.044 261.234 93.412L919.324-64.91c8.079-8.078 18.66-12.06 29.241-12.06s21.163 3.982 29.241 12.06c16.043 16.156 16.043 42.325-.114 58.368zM119.24 463.132c0 182.159 148.253 330.411 330.41 330.411s330.41-148.252 330.41-330.41-148.252-330.412-330.41-330.412-330.41 148.252-330.41 330.41z" horiz-adv-x="1024"/></font>
</defs>
</svg>
